
<svg version="1.0" xmlns="http://www.w3.org/2000/svg"
 width="32.000000pt" height="32.000000pt" viewBox="0 0 32.000000 32.000000"
 preserveAspectRatio="xMidYMid meet">

<g transform="translate(0.000000,32.000000) scale(0.100000,-0.100000)"
fill="#c74778" stroke="none">
<path d="M113 309 c-75 -22 -124 -112 -103 -188 39 -146 242 -157 295 -16 30
78 -3 162 -78 195 -46 21 -66 23 -114 9z m78 -85 c29 25 34 26 48 12 14 -14
12 -19 -14 -46 l-29 -30 29 -30 c27 -28 28 -31 12 -47 -16 -16 -19 -15 -47 12
l-30 29 -30 -29 c-27 -26 -32 -28 -46 -14 -14 14 -13 19 12 48 l27 32 -27 27
c-24 26 -25 29 -9 45 16 16 19 15 45 -9 l27 -27 32 27z"/>
</g>
</svg>
